# xmcd
# 
# Track frame offsets:
#     150
#     3305
#     16548
#     30438
#     45657
#     49133
#     60677
#     76540
#     92653
#     110586
#     113614
#     125119
#     139885
#     153866
#     157666
#     171353
#     184677
#     198093
#     213226
# 
# Disc length: 3041
# 
# Revision: 4
# Processed by: cddbd v1.5.2PL0 Copyright (c) Steve Scherf et al.
# Submitted via: fre:ac v1.0.31
# 
DISCID=e10bdf13
DTITLE=Florida Georgia Line - Can't Say I Ain't Country
DYEAR=2019
DGENRE=Country
TTITLE0=Tyler Got Him A Tesla (Skit) (feat Brother Jervel)
TTITLE1=Can't Say I Ain't Country
TTITLE2=Simple
TTITLE3=Talk You Out Of It
TTITLE4=All Gas No Brakes (Skit) (feat Brother Jervel)
TTITLE5=Speed Of Love
TTITLE6=Women (feat Jason Derulo)
TTITLE7=People Are Different
TTITLE8=Told You
TTITLE9=Sack'a Puppies (Skit) (feat Brother Jervel)
TTITLE10=Y'all Boys (feat Hardy)
TTITLE11=Small Town
TTITLE12=Sittin' Pretty
TTITLE13=Catfish Nuggets (Skit) (feat Brother Jervel)
TTITLE14=Can't Hide Red (feat Jason Aldean)
TTITLE15=Colorado
TTITLE16=Like You Never Had It
TTITLE17=Swerve
TTITLE18=Blessings
EXTD=YEAR: 2019
EXTT0=
EXTT1=
EXTT2=
EXTT3=
EXTT4=
EXTT5=
EXTT6=
EXTT7=
EXTT8=
EXTT9=
EXTT10=
EXTT11=
EXTT12=
EXTT13=
EXTT14=
EXTT15=
EXTT16=
EXTT17=
EXTT18=
PLAYORDER=
